<?xml version="1.0" standalone="yes"?>

<svg version="1.1" viewBox="0.0 0.0 469.0 343.0" fill="none" stroke="none" stroke-linecap="square" stroke-miterlimit="10" xmlns="http://www.w3.org/2000/svg" xmlns:xlink="http://www.w3.org/1999/xlink"><clipPath id="p.0"><path d="m0 0l469.0 0l0 343.0l-469.0 0l0 -343.0z" clip-rule="nonzero"></path></clipPath><g clip-path="url(#p.0)"><path fill="#000000" fill-opacity="0.0" d="m0 0l469.83203 0l0 343.9344l-469.83203 0z" fill-rule="nonzero"></path><path fill="#fce5cd" d="m8.288713 248.89021l0 0c0 -20.804169 16.865116 -37.669296 37.66929 -37.669296l0 0c9.990517 0 19.57185 3.9687195 26.636211 11.033081c7.0643616 7.0643616 11.033081 16.645706 11.033081 26.636215l0 0c0 20.804184 -16.86512 37.669296 -37.669292 37.669296l0 0c-20.804174 0 -37.66929 -16.865112 -37.66929 -37.669296z" fill-rule="nonzero"></path><path stroke="#000000" stroke-width="2.0" stroke-linejoin="round" stroke-linecap="butt" d="m8.288713 248.89021l0 0c0 -20.804169 16.865116 -37.669296 37.66929 -37.669296l0 0c9.990517 0 19.57185 3.9687195 26.636211 11.033081c7.0643616 7.0643616 11.033081 16.645706 11.033081 26.636215l0 0c0 20.804184 -16.86512 37.669296 -37.669292 37.669296l0 0c-20.804174 0 -37.66929 -16.865112 -37.66929 -37.669296z" fill-rule="nonzero"></path><path fill="#000000" d="m47.84827 255.81021l-1.671875 0l0 -10.640625q-0.59375 0.578125 -1.578125 1.15625q-0.984375 0.5625 -1.765625 0.859375l0 -1.625q1.40625 -0.65625 2.453125 -1.59375q1.046875 -0.9375 1.484375 -1.8125l1.078125 0l0 13.65625z" fill-rule="nonzero"></path><path fill="#fce5cd" d="m133.51268 248.89009l0 0c0 -20.804169 16.865112 -37.669296 37.669296 -37.669296l0 0c9.990509 0 19.571838 3.9687195 26.636215 11.033081c7.0643616 7.0643616 11.033066 16.64569 11.033066 26.636215l0 0c0 20.804184 -16.865112 37.669296 -37.66928 37.669296l0 0c-20.804184 0 -37.669296 -16.865112 -37.669296 -37.669296z" fill-rule="nonzero"></path><path stroke="#000000" stroke-width="2.0" stroke-linejoin="round" stroke-linecap="butt" d="m133.51268 248.89009l0 0c0 -20.804169 16.865112 -37.669296 37.669296 -37.669296l0 0c9.990509 0 19.571838 3.9687195 26.636215 11.033081c7.0643616 7.0643616 11.033066 16.64569 11.033066 26.636215l0 0c0 20.804184 -16.865112 37.669296 -37.66928 37.669296l0 0c-20.804184 0 -37.669296 -16.865112 -37.669296 -37.669296z" fill-rule="nonzero"></path><path fill="#000000" d="m175.55661 254.20071l0 1.609375l-8.984375 0q-0.015625 -0.609375 0.1875 -1.15625q0.34375 -0.921875 1.09375 -1.8125q0.765625 -0.890625 2.1875 -2.0625q2.21875 -1.8125 3.0 -2.875q0.78125 -1.0625 0.78125 -2.015625q0 -0.984375 -0.71875 -1.671875q-0.703125 -0.6875 -1.84375 -0.6875q-1.203125 0 -1.9375 0.734375q-0.71875 0.71875 -0.71875 2.0l-1.71875 -0.171875q0.171875 -1.921875 1.328125 -2.921875q1.15625 -1.015625 3.09375 -1.015625q1.953125 0 3.09375 1.09375q1.140625 1.078125 1.140625 2.6875q0 0.8125 -0.34375 1.609375q-0.328125 0.78125 -1.109375 1.65625q-0.765625 0.859375 -2.5625 2.390625q-1.5 1.265625 -1.9375 1.71875q-0.421875 0.4375 -0.703125 0.890625l6.671875 0z" fill-rule="nonzero"></path><path fill="#fce5cd" d="m258.73666 248.88992l0 0c0 -20.804169 16.865112 -37.66928 37.66928 -37.66928l0 0c9.990509 0 19.571838 3.9687042 26.6362 11.033081c7.0643616 7.0643616 11.033081 16.64569 11.033081 26.6362l0 0c0 20.804169 -16.865112 37.66928 -37.66928 37.66928l0 0c-20.804169 0 -37.66928 -16.865112 -37.66928 -37.66928z" fill-rule="nonzero"></path><path stroke="#000000" stroke-width="2.0" stroke-linejoin="round" stroke-linecap="butt" d="m258.73666 248.88992l0 0c0 -20.804169 16.865112 -37.66928 37.66928 -37.66928l0 0c9.990509 0 19.571838 3.9687042 26.6362 11.033081c7.0643616 7.0643616 11.033081 16.64569 11.033081 26.6362l0 0c0 20.804169 -16.865112 37.66928 -37.66928 37.66928l0 0c-20.804169 0 -37.66928 -16.865112 -37.66928 -37.66928z" fill-rule="nonzero"></path><path fill="#000000" d="m292.01495 252.21617l1.671875 -0.21875q0.28125 1.421875 0.96875 2.046875q0.703125 0.625 1.6875 0.625q1.1875 0 2.0 -0.8125q0.8125 -0.828125 0.8125 -2.03125q0 -1.140625 -0.765625 -1.890625q-0.75 -0.75 -1.90625 -0.75q-0.46875 0 -1.171875 0.1875l0.1875 -1.46875q0.15625 0.015625 0.265625 0.015625q1.0625 0 1.90625 -0.546875q0.859375 -0.5625 0.859375 -1.71875q0 -0.921875 -0.625 -1.515625q-0.609375 -0.609375 -1.59375 -0.609375q-0.96875 0 -1.625 0.609375q-0.640625 0.609375 -0.828125 1.84375l-1.671875 -0.296875q0.296875 -1.6875 1.375 -2.609375q1.09375 -0.921875 2.71875 -0.921875q1.109375 0 2.046875 0.484375q0.9375 0.46875 1.421875 1.296875q0.5 0.828125 0.5 1.75q0 0.890625 -0.46875 1.609375q-0.46875 0.71875 -1.40625 1.15625q1.21875 0.265625 1.875 1.15625q0.671875 0.875 0.671875 2.1875q0 1.78125 -1.296875 3.015625q-1.296875 1.2343903 -3.28125 1.2343903q-1.796875 0 -2.984375 -1.0625153q-1.171875 -1.0625 -1.34375 -2.765625z" fill-rule="nonzero"></path><path fill="#fce5cd" d="m383.96063 248.88977l0 0c0 -20.804184 16.865112 -37.669296 37.66928 -37.669296l0 0c9.99054 0 19.571869 3.9687195 26.63623 11.033081c7.0643616 7.0643616 11.033081 16.64569 11.033081 26.636215l0 0c0 20.804169 -16.865143 37.66928 -37.66931 37.66928l0 0c-20.804169 0 -37.66928 -16.865112 -37.66928 -37.66928z" fill-rule="nonzero"></path><path stroke="#000000" stroke-width="2.0" stroke-linejoin="round" stroke-linecap="butt" d="m383.96063 248.88977l0 0c0 -20.804184 16.865112 -37.669296 37.66928 -37.669296l0 0c9.99054 0 19.571869 3.9687195 26.63623 11.033081c7.0643616 7.0643616 11.033081 16.64569 11.033081 26.636215l0 0c0 20.804169 -16.865143 37.66928 -37.66931 37.66928l0 0c-20.804169 0 -37.66928 -16.865112 -37.66928 -37.66928z" fill-rule="nonzero"></path><path fill="#000000" d="m422.5827 255.80977l0 -3.25l-5.90625 0l0 -1.53125l6.21875 -8.8125l1.359375 0l0 8.8125l1.84375 0l0 1.53125l-1.84375 0l0 3.25l-1.671875 0zm0 -4.78125l0 -6.140625l-4.25 6.140625l4.25 0z" fill-rule="nonzero"></path><path fill="#000000" fill-opacity="0.0" d="m8.288713 325.44882l442.23618 0" fill-rule="nonzero"></path><path stroke="#000000" stroke-width="2.0" stroke-linejoin="round" stroke-linecap="butt" d="m8.288713 325.44882l430.2362 0" fill-rule="evenodd"></path><path fill="#000000" stroke="#000000" stroke-width="2.0" stroke-linecap="butt" d="m438.52493 328.7523l9.076202 -3.3034668l-9.076202 -3.3034668z" fill-rule="evenodd"></path><path fill="#000000" fill-opacity="0.0" d="m157.99748 287.3517l137.82677 0l0 42.141724l-137.82677 0z" fill-rule="nonzero"></path><path fill="#000000" d="m168.3881 314.2717l0 -13.59375l1.796875 0l0 11.984375l6.703125 0l0 1.609375l-8.5 0zm10.250717 -11.6875l0 -1.90625l1.671875 0l0 1.90625l-1.671875 0zm0 11.6875l0 -9.859375l1.671875 0l0 9.859375l-1.671875 0zm4.129196 0l0 -9.859375l1.5 0l0 1.40625q1.09375 -1.625 3.140625 -1.625q0.890625 0 1.640625 0.328125q0.75 0.3125 1.109375 0.84375q0.375 0.515625 0.53125 1.21875q0.09375 0.46875 0.09375 1.625l0 6.0625l-1.671875 0l0 -6.0q0 -1.015625 -0.203125 -1.515625q-0.1875 -0.515625 -0.6875 -0.8125q-0.5 -0.296875 -1.171875 -0.296875q-1.0625 0 -1.84375 0.671875q-0.765625 0.671875 -0.765625 2.578125l0 5.375l-1.671875 0zm17.125717 -3.171875l1.71875 0.21875q-0.40625 1.5 -1.515625 2.34375q-1.09375 0.828125 -2.8125 0.828125q-2.15625 0 -3.421875 -1.328125q-1.265625 -1.328125 -1.265625 -3.734375q0 -2.484375 1.265625 -3.859375q1.28125 -1.375 3.328125 -1.375q1.984375 0 3.234375 1.34375q1.25 1.34375 1.25 3.796875q0 0.140625 -0.015625 0.4375l-7.34375 0q0.09375 1.625 0.921875 2.484375q0.828125 0.859375 2.0625 0.859375q0.90625 0 1.546875 -0.46875q0.65625 -0.484375 1.046875 -1.546875zm-5.484375 -2.703125l5.5 0q-0.109375 -1.234375 -0.625 -1.859375q-0.796875 -0.96875 -2.078125 -0.96875q-1.140625 0 -1.9375 0.78125q-0.78125 0.765625 -0.859375 2.046875zm15.547592 4.65625q-0.9375 0.796875 -1.796875 1.125q-0.859375 0.3125 -1.84375 0.3125q-1.609375 0 -2.484375 -0.78125q-0.875 -0.796875 -0.875 -2.03125q0 -0.734375 0.328125 -1.328125q0.328125 -0.59375 0.859375 -0.953125q0.53125 -0.359375 1.203125 -0.546875q0.5 -0.140625 1.484375 -0.25q2.03125 -0.25 2.984375 -0.578125q0 -0.34375 0 -0.4375q0 -1.015625 -0.46875 -1.4375q-0.640625 -0.5625 -1.90625 -0.5625q-1.171875 0 -1.734375 0.40625q-0.5625 0.40625 -0.828125 1.46875l-1.640625 -0.234375q0.234375 -1.046875 0.734375 -1.6875q0.515625 -0.640625 1.46875 -0.984375q0.96875 -0.359375 2.25 -0.359375q1.265625 0 2.046875 0.296875q0.78125 0.296875 1.15625 0.75q0.375 0.453125 0.515625 1.140625q0.09375 0.421875 0.09375 1.53125l0 2.234375q0 2.328125 0.09375 2.953125q0.109375 0.609375 0.4375 1.171875l-1.75 0q-0.265625 -0.515625 -0.328125 -1.21875zm-0.140625 -3.71875q-0.90625 0.359375 -2.734375 0.625q-1.03125 0.140625 -1.453125 0.328125q-0.421875 0.1875 -0.65625 0.546875q-0.234375 0.359375 -0.234375 0.796875q0 0.671875 0.5 1.125q0.515625 0.4375 1.484375 0.4375q0.96875 0 1.71875 -0.421875q0.75 -0.4375 1.109375 -1.15625q0.265625 -0.578125 0.265625 -1.671875l0 -0.609375zm4.063217 4.9375l0 -9.859375l1.5 0l0 1.5q0.578125 -1.046875 1.0625 -1.375q0.484375 -0.34375 1.078125 -0.34375q0.84375 0 1.71875 0.546875l-0.578125 1.546875q-0.609375 -0.359375 -1.234375 -0.359375q-0.546875 0 -0.984375 0.328125q-0.421875 0.328125 -0.609375 0.90625q-0.28125 0.890625 -0.28125 1.953125l0 5.15625l-1.671875 0zm11.677231 0l0 -13.59375l1.8125 0l0 5.578125l7.0625 0l0 -5.578125l1.796875 0l0 13.59375l-1.796875 0l0 -6.40625l-7.0625 0l0 6.40625l-1.8125 0zm13.222946 -11.6875l0 -1.90625l1.671875 0l0 1.90625l-1.671875 0zm0 11.6875l0 -9.859375l1.671875 0l0 9.859375l-1.671875 0zm3.4573212 -2.9375l1.65625 -0.265625q0.140625 1.0 0.765625 1.53125q0.640625 0.515625 1.78125 0.515625q1.15625 0 1.703125 -0.46875q0.5625 -0.46875 0.5625 -1.09375q0 -0.5625 -0.484375 -0.890625q-0.34375 -0.21875 -1.703125 -0.5625q-1.84375 -0.46875 -2.5625 -0.796875q-0.703125 -0.34375 -1.078125 -0.9375q-0.359375 -0.609375 -0.359375 -1.328125q0 -0.65625 0.296875 -1.21875q0.3125 -0.5625 0.828125 -0.9375q0.390625 -0.28125 1.0625 -0.484375q0.671875 -0.203125 1.4375 -0.203125q1.171875 0 2.046875 0.34375q0.875 0.328125 1.28125 0.90625q0.421875 0.5625 0.578125 1.515625l-1.625 0.21875q-0.109375 -0.75 -0.65625 -1.171875q-0.53125 -0.4375 -1.5 -0.4375q-1.15625 0 -1.640625 0.390625q-0.484375 0.375 -0.484375 0.875q0 0.328125 0.203125 0.59375q0.203125 0.265625 0.640625 0.4375q0.25 0.09375 1.46875 0.4375q1.765625 0.46875 2.46875 0.765625q0.703125 0.296875 1.09375 0.875q0.40625 0.578125 0.40625 1.4375q0 0.828125 -0.484375 1.578125q-0.484375 0.734375 -1.40625 1.140625q-0.921875 0.390625 -2.078125 0.390625q-1.921875 0 -2.9375 -0.796875q-1.0 -0.796875 -1.28125 -2.359375zm13.65625 1.4375l0.23435974 1.484375q-0.70310974 0.140625 -1.2656097 0.140625q-0.90625 0 -1.40625 -0.28125q-0.5 -0.296875 -0.703125 -0.75q-0.203125 -0.46875 -0.203125 -1.984375l0 -5.65625l-1.234375 0l0 -1.3125l1.234375 0l0 -2.4375l1.65625 -1.0l0 3.4375l1.6875 0l0 1.3125l-1.6875 0l0 5.75q0 0.71875 0.078125 0.921875q0.09375 0.203125 0.296875 0.328125q0.203125 0.125 0.578125 0.125q0.265625 0 0.734375 -0.078125zm0.90205383 -3.421875q0 -2.734375 1.53125 -4.0625q1.265625 -1.09375 3.09375 -1.09375q2.03125 0 3.3125 1.34375q1.296875 1.328125 1.296875 3.671875q0 1.90625 -0.578125 3.0q-0.5625 1.078125 -1.65625 1.6875q-1.078125 0.59375 -2.375 0.59375q-2.0625 0 -3.34375 -1.328125q-1.28125 -1.328125 -1.28125 -3.8125zm1.71875 0q0 1.890625 0.828125 2.828125q0.828125 0.9375 2.078125 0.9375q1.25 0 2.0625 -0.9375q0.828125 -0.953125 0.828125 -2.890625q0 -1.828125 -0.828125 -2.765625q-0.828125 -0.9375 -2.0625 -0.9375q-1.25 0 -2.078125 0.9375q-0.828125 0.9375 -0.828125 2.828125zm9.266327 4.921875l0 -9.859375l1.5 0l0 1.5q0.578125 -1.046875 1.0625 -1.375q0.484375 -0.34375 1.078125 -0.34375q0.84375 0 1.71875 0.546875l-0.578125 1.546875q-0.609375 -0.359375 -1.234375 -0.359375q-0.546875 0 -0.984375 0.328125q-0.421875 0.328125 -0.609375 0.90625q-0.28125 0.890625 -0.28125 1.953125l0 5.15625l-1.671875 0zm6.150177 3.796875l-0.171875 -1.5625q0.546875 0.140625 0.953125 0.140625q0.546875 0 0.875 -0.1875q0.34375 -0.1875 0.5625 -0.515625q0.15625 -0.25 0.5 -1.25q0.046875 -0.140625 0.15625 -0.40625l-3.734375 -9.875l1.796875 0l2.046875 5.71875q0.40625 1.078125 0.71875 2.28125q0.28125 -1.15625 0.6875 -2.25l2.09375 -5.75l1.671875 0l-3.75 10.03125q-0.59375 1.625 -0.9375 2.234375q-0.4375 0.828125 -1.015625 1.203125q-0.578125 0.390625 -1.375 0.390625q-0.484375 0 -1.078125 -0.203125z" fill-rule="nonzero"></path><path fill="#000000" fill-opacity="0.0" d="m133.51268 248.89009l-49.889763 0" fill-rule="nonzero"></path><path stroke="#000000" stroke-width="2.0" stroke-linejoin="round" stroke-linecap="butt" d="m133.51268 248.89009l-37.889763 0" fill-rule="evenodd"></path><path fill="#000000" stroke="#000000" stroke-width="2.0" stroke-linecap="butt" d="m95.62292 245.58662l-9.076195 3.3034668l9.076195 3.3034668z" fill-rule="evenodd"></path><path fill="#000000" fill-opacity="0.0" d="m258.73666 248.88992l-49.88977 0" fill-rule="nonzero"></path><path stroke="#000000" stroke-width="2.0" stroke-linejoin="round" stroke-linecap="butt" d="m258.73666 248.88992l-37.88977 0" fill-rule="evenodd"></path><path fill="#000000" stroke="#000000" stroke-width="2.0" stroke-linecap="butt" d="m220.8469 245.58646l-9.076202 3.3034668l9.076202 3.3034668z" fill-rule="evenodd"></path><path fill="#000000" fill-opacity="0.0" d="m383.96063 248.88977l-49.88977 0" fill-rule="nonzero"></path><path stroke="#000000" stroke-width="2.0" stroke-linejoin="round" stroke-linecap="butt" d="m383.96063 248.88977l-37.88977 0" fill-rule="evenodd"></path><path fill="#000000" stroke="#000000" stroke-width="2.0" stroke-linecap="butt" d="m346.07086 245.5863l-9.076202 3.3034668l9.076202 3.3034515z" fill-rule="evenodd"></path><path fill="#cfe2f3" d="m21.013123 85.7231l49.889763 0l0 41.57464l-8.3151245 8.315117l-41.57464 0z" fill-rule="nonzero"></path><path fill="#a5b4c2" d="m62.58776 135.61285l1.6630249 -6.6520996l6.6520996 -1.6630173z" fill-rule="nonzero"></path><path fill="#000000" fill-opacity="0.0" d="m62.58776 135.61285l1.6630249 -6.6520996l6.6520996 -1.6630173l-8.3151245 8.315117l-41.57464 0l0 -49.889755l49.889763 0l0 41.57464" fill-rule="nonzero"></path><path stroke="#000000" stroke-width="2.0" stroke-linejoin="round" stroke-linecap="butt" d="m62.58776 135.61285l1.6630249 -6.6520996l6.6520996 -1.6630173l-8.3151245 8.315117l-41.57464 0l0 -49.889755l49.889763 0l0 41.57464" fill-rule="nonzero"></path><path fill="#cfe2f3" d="m21.013123 151.87401l49.889763 0l0 41.574646l-8.3151245 8.3151245l-41.57464 0z" fill-rule="nonzero"></path><path fill="#a5b4c2" d="m62.58776 201.76378l1.6630249 -6.6520996l6.6520996 -1.6630249z" fill-rule="nonzero"></path><path fill="#000000" fill-opacity="0.0" d="m62.58776 201.76378l1.6630249 -6.6520996l6.6520996 -1.6630249l-8.3151245 8.3151245l-41.57464 0l0 -49.88977l49.889763 0l0 41.574646" fill-rule="nonzero"></path><path stroke="#000000" stroke-width="2.0" stroke-linejoin="round" stroke-linecap="butt" d="m62.58776 201.76378l1.6630249 -6.6520996l6.6520996 -1.6630249l-8.3151245 8.3151245l-41.57464 0l0 -49.88977l49.889763 0l0 41.574646" fill-rule="nonzero"></path><path fill="#cfe2f3" d="m21.013123 19.572178l49.889763 0l0 41.57464l-8.3151245 8.315128l-41.57464 0z" fill-rule="nonzero"></path><path fill="#a5b4c2" d="m62.58776 69.461945l1.6630249 -6.6521034l6.6520996 -1.6630249z" fill-rule="nonzero"></path><path fill="#000000" fill-opacity="0.0" d="m62.58776 69.461945l1.6630249 -6.6521034l6.6520996 -1.6630249l-8.3151245 8.315128l-41.57464 0l0 -49.889767l49.889763 0l0 41.57464" fill-rule="nonzero"></path><path stroke="#000000" stroke-width="2.0" stroke-linejoin="round" stroke-linecap="butt" d="m62.58776 69.461945l1.6630249 -6.6521034l6.6520996 -1.6630249l-8.3151245 8.315128l-41.57464 0l0 -49.889767l49.889763 0l0 41.57464" fill-rule="nonzero"></path><path fill="#fff2cc" d="m149.01312 85.7231l49.88977 0l0 41.57464l-8.31514 8.315117l-41.57463 0z" fill-rule="nonzero"></path><path fill="#cbc1a3" d="m190.58775 135.61285l1.6630249 -6.6520996l6.652115 -1.6630173z" fill-rule="nonzero"></path><path fill="#000000" fill-opacity="0.0" d="m190.58775 135.61285l1.6630249 -6.6520996l6.652115 -1.6630173l-8.31514 8.315117l-41.57463 0l0 -49.889755l49.88977 0l0 41.57464" fill-rule="nonzero"></path><path stroke="#000000" stroke-width="2.0" stroke-linejoin="round" stroke-linecap="butt" d="m190.58775 135.61285l1.6630249 -6.6520996l6.652115 -1.6630173l-8.31514 8.315117l-41.57463 0l0 -49.889755l49.88977 0l0 41.57464" fill-rule="nonzero"></path><path fill="#fff2cc" d="m149.01312 151.87401l49.88977 0l0 41.574646l-8.31514 8.3151245l-41.57463 0z" fill-rule="nonzero"></path><path fill="#cbc1a3" d="m190.58775 201.76378l1.6630249 -6.6520996l6.652115 -1.6630249z" fill-rule="nonzero"></path><path fill="#000000" fill-opacity="0.0" d="m190.58775 201.76378l1.6630249 -6.6520996l6.652115 -1.6630249l-8.31514 8.3151245l-41.57463 0l0 -49.88977l49.88977 0l0 41.574646" fill-rule="nonzero"></path><path stroke="#000000" stroke-width="2.0" stroke-linejoin="round" stroke-linecap="butt" d="m190.58775 201.76378l1.6630249 -6.6520996l6.652115 -1.6630249l-8.31514 8.3151245l-41.57463 0l0 -49.88977l49.88977 0l0 41.574646" fill-rule="nonzero"></path><path fill="#efefef" d="m149.01312 19.572178l49.88977 0l0 41.57464l-8.31514 8.315128l-41.57463 0z" fill-rule="nonzero"></path><path fill="#bfbfbf" d="m190.58775 69.461945l1.6630249 -6.6521034l6.652115 -1.6630249z" fill-rule="nonzero"></path><path fill="#000000" fill-opacity="0.0" d="m190.58775 69.461945l1.6630249 -6.6521034l6.652115 -1.6630249l-8.31514 8.315128l-41.57463 0l0 -49.889767l49.88977 0l0 41.57464" fill-rule="nonzero"></path><path stroke="#000000" stroke-width="2.0" stroke-linejoin="round" stroke-linecap="butt" d="m190.58775 69.461945l1.6630249 -6.6521034l6.652115 -1.6630249l-8.31514 8.315128l-41.57463 0l0 -49.889767l49.88977 0l0 41.57464" fill-rule="nonzero"></path><path fill="#fff2cc" d="m277.01312 85.7231l49.88977 0l0 41.57464l-8.3151245 8.315117l-41.574646 0z" fill-rule="nonzero"></path><path fill="#cbc1a3" d="m318.58777 135.61285l1.6630249 -6.6520996l6.6520996 -1.6630173z" fill-rule="nonzero"></path><path fill="#000000" fill-opacity="0.0" d="m318.58777 135.61285l1.6630249 -6.6520996l6.6520996 -1.6630173l-8.3151245 8.315117l-41.574646 0l0 -49.889755l49.88977 0l0 41.57464" fill-rule="nonzero"></path><path stroke="#000000" stroke-width="2.0" stroke-linejoin="round" stroke-linecap="butt" d="m318.58777 135.61285l1.6630249 -6.6520996l6.6520996 -1.6630173l-8.3151245 8.315117l-41.574646 0l0 -49.889755l49.88977 0l0 41.57464" fill-rule="nonzero"></path><path fill="#efefef" d="m277.01312 151.87401l49.88977 0l0 41.574646l-8.3151245 8.3151245l-41.574646 0z" fill-rule="nonzero"></path><path fill="#bfbfbf" d="m318.58777 201.76378l1.6630249 -6.6520996l6.6520996 -1.6630249z" fill-rule="nonzero"></path><path fill="#000000" fill-opacity="0.0" d="m318.58777 201.76378l1.6630249 -6.6520996l6.6520996 -1.6630249l-8.3151245 8.3151245l-41.574646 0l0 -49.88977l49.88977 0l0 41.574646" fill-rule="nonzero"></path><path stroke="#000000" stroke-width="2.0" stroke-linejoin="round" stroke-linecap="butt" d="m318.58777 201.76378l1.6630249 -6.6520996l6.6520996 -1.6630249l-8.3151245 8.3151245l-41.574646 0l0 -49.88977l49.88977 0l0 41.574646" fill-rule="nonzero"></path><path fill="#efefef" d="m277.01312 19.572178l49.88977 0l0 41.57464l-8.3151245 8.315128l-41.574646 0z" fill-rule="nonzero"></path><path fill="#bfbfbf" d="m318.58777 69.461945l1.6630249 -6.6521034l6.6520996 -1.6630249z" fill-rule="nonzero"></path><path fill="#000000" fill-opacity="0.0" d="m318.58777 69.461945l1.6630249 -6.6521034l6.6520996 -1.6630249l-8.3151245 8.315128l-41.574646 0l0 -49.889767l49.88977 0l0 41.57464" fill-rule="nonzero"></path><path stroke="#000000" stroke-width="2.0" stroke-linejoin="round" stroke-linecap="butt" d="m318.58777 69.461945l1.6630249 -6.6521034l6.6520996 -1.6630249l-8.3151245 8.315128l-41.574646 0l0 -49.889767l49.88977 0l0 41.57464" fill-rule="nonzero"></path><path fill="#fff2cc" d="m397.01312 85.7231l49.88977 0l0 41.57464l-8.3151245 8.315117l-41.574646 0z" fill-rule="nonzero"></path><path fill="#cbc1a3" d="m438.58777 135.61285l1.6630249 -6.6520996l6.6520996 -1.6630173z" fill-rule="nonzero"></path><path fill="#000000" fill-opacity="0.0" d="m438.58777 135.61285l1.6630249 -6.6520996l6.6520996 -1.6630173l-8.3151245 8.315117l-41.574646 0l0 -49.889755l49.88977 0l0 41.57464" fill-rule="nonzero"></path><path stroke="#000000" stroke-width="2.0" stroke-linejoin="round" stroke-linecap="butt" d="m438.58777 135.61285l1.6630249 -6.6520996l6.6520996 -1.6630173l-8.3151245 8.315117l-41.574646 0l0 -49.889755l49.88977 0l0 41.57464" fill-rule="nonzero"></path><path fill="#f4cccc" d="m397.01312 151.87401l49.88977 0l0 41.574646l-8.3151245 8.3151245l-41.574646 0z" fill-rule="nonzero"></path><path fill="#c3a3a3" d="m438.58777 201.76378l1.6630249 -6.6520996l6.6520996 -1.6630249z" fill-rule="nonzero"></path><path fill="#000000" fill-opacity="0.0" d="m438.58777 201.76378l1.6630249 -6.6520996l6.6520996 -1.6630249l-8.3151245 8.3151245l-41.574646 0l0 -49.88977l49.88977 0l0 41.574646" fill-rule="nonzero"></path><path stroke="#000000" stroke-width="2.0" stroke-linejoin="round" stroke-linecap="butt" d="m438.58777 201.76378l1.6630249 -6.6520996l6.6520996 -1.6630249l-8.3151245 8.3151245l-41.574646 0l0 -49.88977l49.88977 0l0 41.574646" fill-rule="nonzero"></path><path fill="#efefef" d="m397.01312 19.572178l49.88977 0l0 41.57464l-8.3151245 8.315128l-41.574646 0z" fill-rule="nonzero"></path><path fill="#bfbfbf" d="m438.58777 69.461945l1.6630249 -6.6521034l6.6520996 -1.6630249z" fill-rule="nonzero"></path><path fill="#000000" fill-opacity="0.0" d="m438.58777 69.461945l1.6630249 -6.6521034l6.6520996 -1.6630249l-8.3151245 8.315128l-41.574646 0l0 -49.889767l49.88977 0l0 41.57464" fill-rule="nonzero"></path><path stroke="#000000" stroke-width="2.0" stroke-linejoin="round" stroke-linecap="butt" d="m438.58777 69.461945l1.6630249 -6.6521034l6.6520996 -1.6630249l-8.3151245 8.315128l-41.574646 0l0 -49.889767l49.88977 0l0 41.57464" fill-rule="nonzero"></path></g></svg>

