<?xml version="1.0" standalone="yes"?>

<svg version="1.1" viewBox="0.0 0.0 554.0 231.0" fill="none" stroke="none" stroke-linecap="square" stroke-miterlimit="10" xmlns="http://www.w3.org/2000/svg" xmlns:xlink="http://www.w3.org/1999/xlink"><clipPath id="p.0"><path d="m0 0l554.0 0l0 231.0l-554.0 0l0 -231.0z" clip-rule="nonzero"></path></clipPath><g clip-path="url(#p.0)"><path fill="#000000" fill-opacity="0.0" d="m0 0l554.8845 0l0 231.81627l-554.8845 0z" fill-rule="nonzero"></path><path fill="#000000" fill-opacity="0.0" d="m23.14011 197.44847l498.17325 -133.48032" fill-rule="nonzero"></path><path stroke="#b7b7b7" stroke-width="2.0" stroke-linejoin="round" stroke-linecap="butt" d="m23.14011 197.44847l486.5821 -130.37459" fill-rule="evenodd"></path><path fill="#b7b7b7" stroke="#b7b7b7" stroke-width="2.0" stroke-linecap="butt" d="m510.57715 70.264786l7.9119873 -5.539917l-9.621918 -0.8418999z" fill-rule="evenodd"></path><path fill="#fce5cd" d="m302.17715 120.25361l0 0c0 -10.384689 8.418457 -18.803146 18.803162 -18.803146l0 0c4.986908 0 9.769562 1.981041 13.295837 5.507309c3.5262756 3.5262756 5.507324 8.308929 5.507324 13.295837l0 0c0 10.384697 -8.418457 18.803154 -18.803162 18.803154l0 0c-10.384705 0 -18.803162 -8.418457 -18.803162 -18.803154z" fill-rule="nonzero"></path><path stroke="#000000" stroke-width="2.0" stroke-linejoin="round" stroke-linecap="butt" d="m302.17715 120.25361l0 0c0 -10.384689 8.418457 -18.803146 18.803162 -18.803146l0 0c4.986908 0 9.769562 1.981041 13.295837 5.507309c3.5262756 3.5262756 5.507324 8.308929 5.507324 13.295837l0 0c0 10.384697 -8.418457 18.803154 -18.803162 18.803154l0 0c-10.384705 0 -18.803162 -8.418457 -18.803162 -18.803154z" fill-rule="nonzero"></path><path fill="#000000" d="m314.72726 127.17361l5.234375 -13.59375l1.9375 0l5.5625 13.59375l-2.046875 0l-1.59375 -4.125l-5.6875 0l-1.484375 4.125l-1.921875 0zm3.921875 -5.578125l4.609375 0l-1.40625 -3.78125q-0.65625 -1.703125 -0.96875 -2.8125q-0.265625 1.3125 -0.734375 2.59375l-1.5 4.0z" fill-rule="nonzero"></path><path fill="#fce5cd" d="m364.65442 120.25355l0 0c0 -10.384689 8.418457 -18.803146 18.803162 -18.803146l0 0c4.986908 0 9.769562 1.981041 13.295807 5.507309c3.5262756 3.5262756 5.507324 8.308929 5.507324 13.295837l0 0c0 10.384697 -8.418457 18.803154 -18.803131 18.803154l0 0c-10.384705 0 -18.803162 -8.418457 -18.803162 -18.803154z" fill-rule="nonzero"></path><path stroke="#000000" stroke-width="2.0" stroke-linejoin="round" stroke-linecap="butt" d="m364.65442 120.25355l0 0c0 -10.384689 8.418457 -18.803146 18.803162 -18.803146l0 0c4.986908 0 9.769562 1.981041 13.295807 5.507309c3.5262756 3.5262756 5.507324 8.308929 5.507324 13.295837l0 0c0 10.384697 -8.418457 18.803154 -18.803131 18.803154l0 0c-10.384705 0 -18.803162 -8.418457 -18.803162 -18.803154z" fill-rule="nonzero"></path><path fill="#000000" d="m378.6264 127.173546l0 -13.59375l5.109375 0q1.546875 0 2.484375 0.40625q0.953125 0.40625 1.484375 1.265625q0.53125 0.859375 0.53125 1.796875q0 0.875 -0.46875 1.65625q-0.46875 0.765625 -1.4375 1.234375q1.234375 0.359375 1.890625 1.234375q0.671875 0.875 0.671875 2.0625q0 0.953125 -0.40625 1.78125q-0.390625 0.8125 -0.984375 1.265625q-0.59375 0.4375 -1.5 0.671875q-0.890625 0.21875 -2.1875 0.21875l-5.1875 0zm1.796875 -7.890625l2.9375 0q1.203125 0 1.71875 -0.15625q0.6875 -0.203125 1.03125 -0.671875q0.359375 -0.46875 0.359375 -1.1875q0 -0.671875 -0.328125 -1.1875q-0.328125 -0.515625 -0.9375 -0.703125q-0.59375 -0.203125 -2.0625 -0.203125l-2.71875 0l0 4.109375zm0 6.28125l3.390625 0q0.875 0 1.21875 -0.0625q0.625 -0.109375 1.046875 -0.359375q0.421875 -0.265625 0.6875 -0.765625q0.265625 -0.5 0.265625 -1.140625q0 -0.765625 -0.390625 -1.328125q-0.390625 -0.5625 -1.078125 -0.78125q-0.6875 -0.234375 -1.984375 -0.234375l-3.15625 0l0 4.671875z" fill-rule="nonzero"></path><path fill="#fce5cd" d="m427.13165 120.25346l0 0c0 -10.384689 8.418457 -18.803146 18.803162 -18.803146l0 0c4.986908 0 9.769562 1.981041 13.295837 5.5073166c3.5262756 3.5262756 5.5072937 8.308929 5.5072937 13.29583l0 0c0 10.384689 -8.4184265 18.803146 -18.803131 18.803146l0 0c-10.384705 0 -18.803162 -8.418457 -18.803162 -18.803146z" fill-rule="nonzero"></path><path stroke="#000000" stroke-width="2.0" stroke-linejoin="round" stroke-linecap="butt" d="m427.13165 120.25346l0 0c0 -10.384689 8.418457 -18.803146 18.803162 -18.803146l0 0c4.986908 0 9.769562 1.981041 13.295837 5.5073166c3.5262756 3.5262756 5.5072937 8.308929 5.5072937 13.29583l0 0c0 10.384689 -8.4184265 18.803146 -18.803131 18.803146l0 0c-10.384705 0 -18.803162 -8.418457 -18.803162 -18.803146z" fill-rule="nonzero"></path><path fill="#000000" d="m450.3702 122.40784l1.796875 0.453125q-0.5625 2.21875 -2.03125 3.390625q-1.46875 1.15625 -3.59375 1.15625q-2.203125 0 -3.578125 -0.890625q-1.375 -0.90625 -2.09375 -2.59375q-0.71875 -1.703125 -0.71875 -3.65625q0 -2.125 0.796875 -3.703125q0.8125 -1.578125 2.3125 -2.390625q1.5 -0.828125 3.296875 -0.828125q2.046875 0 3.4375 1.046875q1.390625 1.03125 1.9375 2.90625l-1.765625 0.421875q-0.46875 -1.484375 -1.375 -2.15625q-0.90625 -0.6875 -2.265625 -0.6875q-1.5625 0 -2.625 0.75q-1.046875 0.75 -1.484375 2.03125q-0.421875 1.265625 -0.421875 2.609375q0 1.734375 0.5 3.03125q0.515625 1.28125 1.578125 1.921875q1.078125 0.640625 2.3125 0.640625q1.515625 0 2.5625 -0.859375q1.046875 -0.875 1.421875 -2.59375z" fill-rule="nonzero"></path><path fill="#fce5cd" d="m489.60892 120.25339l0 0c0 -10.384697 8.418457 -18.803154 18.803162 -18.803154l0 0c4.986908 0 9.769562 1.981041 13.295807 5.5073166c3.5263062 3.5262756 5.507324 8.308929 5.507324 13.295837l0 0c0 10.384689 -8.418457 18.803146 -18.803131 18.803146l0 0c-10.384705 0 -18.803162 -8.418457 -18.803162 -18.803146z" fill-rule="nonzero"></path><path stroke="#000000" stroke-width="2.0" stroke-linejoin="round" stroke-linecap="butt" d="m489.60892 120.25339l0 0c0 -10.384697 8.418457 -18.803154 18.803162 -18.803154l0 0c4.986908 0 9.769562 1.981041 13.295807 5.5073166c3.5263062 3.5262756 5.507324 8.308929 5.507324 13.295837l0 0c0 10.384689 -8.418457 18.803146 -18.803131 18.803146l0 0c-10.384705 0 -18.803162 -8.418457 -18.803162 -18.803146z" fill-rule="nonzero"></path><path fill="#000000" d="m503.14435 127.17338l0 -13.59375l4.6875 0q1.578125 0 2.421875 0.1875q1.15625 0.265625 1.984375 0.96875q1.078125 0.921875 1.609375 2.34375q0.53125 1.40625 0.53125 3.21875q0 1.546875 -0.359375 2.75q-0.359375 1.1875 -0.921875 1.984375q-0.5625 0.78125 -1.234375 1.234375q-0.671875 0.4375 -1.625 0.671875q-0.953125 0.234375 -2.1875 0.234375l-4.90625 0zm1.796875 -1.609375l2.90625 0q1.34375 0 2.109375 -0.25q0.765625 -0.25 1.21875 -0.703125q0.640625 -0.640625 1.0 -1.71875q0.359375 -1.078125 0.359375 -2.625q0 -2.125 -0.703125 -3.265625q-0.703125 -1.15625 -1.703125 -1.546875q-0.71875 -0.28125 -2.328125 -0.28125l-2.859375 0l0 10.390625z" fill-rule="nonzero"></path><path fill="#000000" fill-opacity="0.0" d="m364.65442 120.25355l-24.881897 0" fill-rule="nonzero"></path><path stroke="#000000" stroke-width="2.0" stroke-linejoin="round" stroke-linecap="butt" d="m364.65442 120.25355l-12.881897 0" fill-rule="evenodd"></path><path fill="#000000" stroke="#000000" stroke-width="2.0" stroke-linecap="butt" d="m351.77252 116.95008l-9.076172 3.3034668l9.076172 3.3034668z" fill-rule="evenodd"></path><path fill="#000000" fill-opacity="0.0" d="m427.13165 120.25346l-24.881866 0" fill-rule="nonzero"></path><path stroke="#000000" stroke-width="2.0" stroke-linejoin="round" stroke-linecap="butt" d="m427.13165 120.25346l-12.881897 0" fill-rule="evenodd"></path><path fill="#000000" stroke="#000000" stroke-width="2.0" stroke-linecap="butt" d="m414.24976 116.95l-9.076202 3.3034668l9.076202 3.3034668z" fill-rule="evenodd"></path><path fill="#000000" fill-opacity="0.0" d="m489.60892 120.25339l-24.881897 0" fill-rule="nonzero"></path><path stroke="#000000" stroke-width="2.0" stroke-linejoin="round" stroke-linecap="butt" d="m489.60892 120.25338l-12.881897 0" fill-rule="evenodd"></path><path fill="#000000" stroke="#000000" stroke-width="2.0" stroke-linecap="butt" d="m476.72702 116.94992l-9.076172 3.3034592l9.076172 3.3034668z" fill-rule="evenodd"></path><path fill="#c9daf8" d="m396.58557 72.35705l0 0c0 -10.384689 8.418457 -18.803146 18.803131 -18.803146l0 0c4.986908 0 9.769562 1.981041 13.295837 5.507313c3.5262756 3.5262756 5.507324 8.308933 5.507324 13.295834l0 0c0 10.384697 -8.418457 18.803154 -18.803162 18.803154l0 0c-10.384674 0 -18.803131 -8.418457 -18.803131 -18.803154z" fill-rule="nonzero"></path><path stroke="#000000" stroke-width="2.0" stroke-linejoin="round" stroke-linecap="butt" stroke-dasharray="2.0,6.0" d="m396.58557 72.35705l0 0c0 -10.384689 8.418457 -18.803146 18.803131 -18.803146l0 0c4.986908 0 9.769562 1.981041 13.295837 5.507313c3.5262756 3.5262756 5.507324 8.308933 5.507324 13.295834l0 0c0 10.384697 -8.418457 18.803154 -18.803162 18.803154l0 0c-10.384674 0 -18.803131 -8.418457 -18.803131 -18.803154z" fill-rule="nonzero"></path><path fill="#c9daf8" d="m459.0628 72.35697l0 0c0 -10.384697 8.418457 -18.80315 18.803162 -18.80315l0 0c4.986908 0 9.769562 1.9810371 13.295837 5.507313c3.5262756 3.5262756 5.5072937 8.308929 5.5072937 13.295837l0 0c0 10.384689 -8.418457 18.803146 -18.803131 18.803146l0 0c-10.384705 0 -18.803162 -8.418457 -18.803162 -18.803146z" fill-rule="nonzero"></path><path stroke="#000000" stroke-width="2.0" stroke-linejoin="round" stroke-linecap="butt" stroke-dasharray="2.0,6.0" d="m459.0628 72.35697l0 0c0 -10.384697 8.418457 -18.80315 18.803162 -18.80315l0 0c4.986908 0 9.769562 1.9810371 13.295837 5.507313c3.5262756 3.5262756 5.5072937 8.308929 5.5072937 13.295837l0 0c0 10.384689 -8.418457 18.803146 -18.803131 18.803146l0 0c-10.384705 0 -18.803162 -8.418457 -18.803162 -18.803146z" fill-rule="nonzero"></path><path fill="#000000" fill-opacity="0.0" d="m396.58557 72.35705l-56.787415 47.905518" fill-rule="nonzero"></path><path stroke="#000000" stroke-width="2.0" stroke-linejoin="round" stroke-linecap="butt" stroke-dasharray="2.0,6.0" d="m396.58554 72.357056l-47.615204 40.167892" fill-rule="evenodd"></path><path fill="#000000" stroke="#000000" stroke-width="2.0" stroke-linecap="butt" d="m346.84027 109.99994l-4.807312 8.37735l9.067474 -3.3273392z" fill-rule="evenodd"></path><path fill="#000000" fill-opacity="0.0" d="m459.0628 72.35697l-24.881897 0" fill-rule="nonzero"></path><path stroke="#000000" stroke-width="2.0" stroke-linejoin="round" stroke-linecap="butt" stroke-dasharray="2.0,6.0" d="m459.06284 72.35697l-12.881897 0" fill-rule="evenodd"></path><path fill="#000000" stroke="#000000" stroke-width="2.0" stroke-linecap="butt" d="m446.18094 69.053505l-9.076202 3.3034668l9.076202 3.3034668z" fill-rule="evenodd"></path><path fill="#fce5cd" d="m79.00787 175.5922l0 0c0 -10.384689 8.418457 -18.803146 18.803146 -18.803146l0 0c4.986908 0 9.769562 1.9810333 13.295837 5.507309c3.5262756 3.5262756 5.5073166 8.308929 5.5073166 13.295837l0 0c0 10.384689 -8.418457 18.803146 -18.803154 18.803146l0 0c-10.384689 0 -18.803146 -8.418457 -18.803146 -18.803146z" fill-rule="nonzero"></path><path stroke="#000000" stroke-width="2.0" stroke-linejoin="round" stroke-linecap="butt" d="m79.00787 175.5922l0 0c0 -10.384689 8.418457 -18.803146 18.803146 -18.803146l0 0c4.986908 0 9.769562 1.9810333 13.295837 5.507309c3.5262756 3.5262756 5.5073166 8.308929 5.5073166 13.295837l0 0c0 10.384689 -8.418457 18.803146 -18.803154 18.803146l0 0c-10.384689 0 -18.803146 -8.418457 -18.803146 -18.803146z" fill-rule="nonzero"></path><path fill="#000000" d="m91.55798 182.51219l5.234375 -13.59375l1.9375 0l5.5625 13.59375l-2.046875 0l-1.59375 -4.125l-5.6875 0l-1.484375 4.125l-1.921875 0zm3.921875 -5.578125l4.609375 0l-1.40625 -3.78125q-0.65625 -1.703125 -0.96875 -2.8125q-0.265625 1.3125 -0.734375 2.59375l-1.5 4.0z" fill-rule="nonzero"></path><path fill="#fce5cd" d="m141.48512 175.59213l0 0c0 -10.384689 8.418457 -18.803146 18.803146 -18.803146l0 0c4.986908 0 9.769562 1.9810333 13.295837 5.507309c3.5262756 3.5262756 5.507324 8.308929 5.507324 13.295837l0 0c0 10.384689 -8.418457 18.803146 -18.803162 18.803146l0 0c-10.384689 0 -18.803146 -8.418457 -18.803146 -18.803146z" fill-rule="nonzero"></path><path stroke="#000000" stroke-width="2.0" stroke-linejoin="round" stroke-linecap="butt" d="m141.48512 175.59213l0 0c0 -10.384689 8.418457 -18.803146 18.803146 -18.803146l0 0c4.986908 0 9.769562 1.9810333 13.295837 5.507309c3.5262756 3.5262756 5.507324 8.308929 5.507324 13.295837l0 0c0 10.384689 -8.418457 18.803146 -18.803162 18.803146l0 0c-10.384689 0 -18.803146 -8.418457 -18.803146 -18.803146z" fill-rule="nonzero"></path><path fill="#000000" d="m155.4571 182.51213l0 -13.59375l5.109375 0q1.546875 0 2.484375 0.40625q0.953125 0.40625 1.484375 1.265625q0.53125 0.859375 0.53125 1.796875q0 0.875 -0.46875 1.65625q-0.46875 0.765625 -1.4375 1.234375q1.234375 0.359375 1.890625 1.234375q0.671875 0.875 0.671875 2.0625q0 0.953125 -0.40625 1.78125q-0.390625 0.8125 -0.984375 1.265625q-0.59375 0.4375 -1.5 0.671875q-0.890625 0.21875 -2.1875 0.21875l-5.1875 0zm1.796875 -7.890625l2.9375 0q1.203125 0 1.71875 -0.15625q0.6875 -0.203125 1.03125 -0.671875q0.359375 -0.46875 0.359375 -1.1875q0 -0.671875 -0.328125 -1.1875q-0.328125 -0.515625 -0.9375 -0.703125q-0.59375 -0.203125 -2.0625 -0.203125l-2.71875 0l0 4.109375zm0 6.28125l3.390625 0q0.875 0 1.21875 -0.0625q0.625 -0.109375 1.046875 -0.359375q0.421875 -0.265625 0.6875 -0.765625q0.265625 -0.5 0.265625 -1.140625q0 -0.765625 -0.390625 -1.328125q-0.390625 -0.5625 -1.078125 -0.78125q-0.6875 -0.234375 -1.984375 -0.234375l-3.15625 0l0 4.671875z" fill-rule="nonzero"></path><path fill="#fce5cd" d="m203.96237 175.59204l0 0c0 -10.384689 8.418457 -18.803146 18.803146 -18.803146l0 0c4.986908 0 9.769562 1.9810486 13.295837 5.507324c3.5262756 3.5262756 5.507309 8.308929 5.507309 13.295822l0 0c0 10.384705 -8.418457 18.803162 -18.803146 18.803162l0 0c-10.384689 0 -18.803146 -8.418457 -18.803146 -18.803162z" fill-rule="nonzero"></path><path stroke="#000000" stroke-width="2.0" stroke-linejoin="round" stroke-linecap="butt" d="m203.96237 175.59204l0 0c0 -10.384689 8.418457 -18.803146 18.803146 -18.803146l0 0c4.986908 0 9.769562 1.9810486 13.295837 5.507324c3.5262756 3.5262756 5.507309 8.308929 5.507309 13.295822l0 0c0 10.384705 -8.418457 18.803162 -18.803146 18.803162l0 0c-10.384689 0 -18.803146 -8.418457 -18.803146 -18.803162z" fill-rule="nonzero"></path><path fill="#000000" d="m227.20093 177.74641l1.796875 0.453125q-0.5625 2.21875 -2.03125 3.390625q-1.46875 1.15625 -3.59375 1.15625q-2.203125 0 -3.578125 -0.890625q-1.375 -0.90625 -2.09375 -2.59375q-0.71875 -1.703125 -0.71875 -3.65625q0 -2.125 0.796875 -3.703125q0.8125 -1.578125 2.3125 -2.390625q1.5 -0.828125 3.296875 -0.828125q2.046875 0 3.4375 1.046875q1.390625 1.03125 1.9375 2.90625l-1.765625 0.421875q-0.46875 -1.484375 -1.375 -2.15625q-0.90625 -0.6875 -2.265625 -0.6875q-1.5625 0 -2.625 0.75q-1.046875 0.75 -1.484375 2.03125q-0.421875 1.265625 -0.421875 2.609375q0 1.734375 0.5 3.03125q0.515625 1.28125 1.578125 1.921875q1.078125 0.640625 2.3125 0.640625q1.515625 0 2.5625 -0.859375q1.046875 -0.875 1.421875 -2.59375z" fill-rule="nonzero"></path><path fill="#fce5cd" d="m266.43964 175.59196l0 0c0 -10.384689 8.418457 -18.803146 18.803131 -18.803146l0 0c4.986908 0 9.769562 1.9810333 13.295837 5.507309c3.5262756 3.5262756 5.507324 8.308929 5.507324 13.295837l0 0c0 10.384689 -8.418457 18.803146 -18.803162 18.803146l0 0c-10.384674 0 -18.803131 -8.418457 -18.803131 -18.803146z" fill-rule="nonzero"></path><path stroke="#000000" stroke-width="2.0" stroke-linejoin="round" stroke-linecap="butt" d="m266.43964 175.59196l0 0c0 -10.384689 8.418457 -18.803146 18.803131 -18.803146l0 0c4.986908 0 9.769562 1.9810333 13.295837 5.507309c3.5262756 3.5262756 5.507324 8.308929 5.507324 13.295837l0 0c0 10.384689 -8.418457 18.803146 -18.803162 18.803146l0 0c-10.384674 0 -18.803131 -8.418457 -18.803131 -18.803146z" fill-rule="nonzero"></path><path fill="#000000" d="m279.97504 182.51196l0 -13.59375l4.6875 0q1.578125 0 2.421875 0.1875q1.15625 0.265625 1.984375 0.96875q1.078125 0.921875 1.609375 2.34375q0.53125 1.40625 0.53125 3.21875q0 1.546875 -0.359375 2.75q-0.359375 1.1875 -0.921875 1.984375q-0.5625 0.78125 -1.234375 1.234375q-0.671875 0.4375 -1.625 0.671875q-0.953125 0.234375 -2.1875 0.234375l-4.90625 0zm1.796875 -1.609375l2.90625 0q1.34375 0 2.109375 -0.25q0.765625 -0.25 1.21875 -0.703125q0.640625 -0.640625 1.0 -1.71875q0.359375 -1.078125 0.359375 -2.625q0 -2.125 -0.703125 -3.265625q-0.703125 -1.15625 -1.703125 -1.546875q-0.71875 -0.28125 -2.328125 -0.28125l-2.859375 0l0 10.390625z" fill-rule="nonzero"></path><path fill="#000000" fill-opacity="0.0" d="m16.288713 197.44882l519.5591 0" fill-rule="nonzero"></path><path stroke="#000000" stroke-width="2.0" stroke-linejoin="round" stroke-linecap="butt" d="m16.288713 197.44882l507.55905 0" fill-rule="evenodd"></path><path fill="#000000" stroke="#000000" stroke-width="2.0" stroke-linecap="butt" d="m523.8478 200.75229l9.076172 -3.3034668l-9.076172 -3.3034668z" fill-rule="evenodd"></path><path fill="#000000" fill-opacity="0.0" d="m185.08278 189.44882l137.82677 0l0 42.141724l-137.82677 0z" fill-rule="nonzero"></path><path fill="#000000" d="m195.4734 216.36882l0 -13.59375l1.796875 0l0 11.984375l6.703125 0l0 1.609375l-8.5 0zm10.250717 -11.6875l0 -1.90625l1.671875 0l0 1.90625l-1.671875 0zm0 11.6875l0 -9.859375l1.671875 0l0 9.859375l-1.671875 0zm4.129196 0l0 -9.859375l1.5 0l0 1.40625q1.09375 -1.625 3.140625 -1.625q0.890625 0 1.640625 0.328125q0.75 0.3125 1.109375 0.84375q0.375 0.515625 0.53125 1.21875q0.09375 0.46875 0.09375 1.625l0 6.0625l-1.671875 0l0 -6.0q0 -1.015625 -0.203125 -1.515625q-0.1875 -0.515625 -0.6875 -0.8125q-0.5 -0.296875 -1.171875 -0.296875q-1.0625 0 -1.84375 0.671875q-0.765625 0.671875 -0.765625 2.578125l0 5.375l-1.671875 0zm17.125717 -3.171875l1.71875 0.21875q-0.40625 1.5 -1.515625 2.34375q-1.09375 0.828125 -2.8125 0.828125q-2.15625 0 -3.421875 -1.328125q-1.265625 -1.328125 -1.265625 -3.734375q0 -2.484375 1.265625 -3.859375q1.28125 -1.375 3.328125 -1.375q1.984375 0 3.234375 1.34375q1.25 1.34375 1.25 3.796875q0 0.140625 -0.015625 0.4375l-7.34375 0q0.09375 1.625 0.921875 2.484375q0.828125 0.859375 2.0625 0.859375q0.90625 0 1.546875 -0.46875q0.65625 -0.484375 1.046875 -1.546875zm-5.484375 -2.703125l5.5 0q-0.109375 -1.234375 -0.625 -1.859375q-0.796875 -0.96875 -2.078125 -0.96875q-1.140625 0 -1.9375 0.78125q-0.78125 0.765625 -0.859375 2.046875zm15.547592 4.65625q-0.9375 0.796875 -1.796875 1.125q-0.859375 0.3125 -1.84375 0.3125q-1.609375 0 -2.484375 -0.78125q-0.875 -0.796875 -0.875 -2.03125q0 -0.734375 0.328125 -1.328125q0.328125 -0.59375 0.859375 -0.953125q0.53125 -0.359375 1.203125 -0.546875q0.5 -0.140625 1.484375 -0.25q2.03125 -0.25 2.984375 -0.578125q0 -0.34375 0 -0.4375q0 -1.015625 -0.46875 -1.4375q-0.640625 -0.5625 -1.90625 -0.5625q-1.171875 0 -1.734375 0.40625q-0.5625 0.40625 -0.828125 1.46875l-1.640625 -0.234375q0.234375 -1.046875 0.734375 -1.6875q0.515625 -0.640625 1.46875 -0.984375q0.96875 -0.359375 2.25 -0.359375q1.265625 0 2.046875 0.296875q0.78125 0.296875 1.15625 0.75q0.375 0.453125 0.515625 1.140625q0.09375 0.421875 0.09375 1.53125l0 2.234375q0 2.328125 0.09375 2.953125q0.109375 0.609375 0.4375 1.171875l-1.75 0q-0.265625 -0.515625 -0.328125 -1.21875zm-0.140625 -3.71875q-0.90625 0.359375 -2.734375 0.625q-1.03125 0.140625 -1.453125 0.328125q-0.421875 0.1875 -0.65625 0.546875q-0.234375 0.359375 -0.234375 0.796875q0 0.671875 0.5 1.125q0.515625 0.4375 1.484375 0.4375q0.96875 0 1.71875 -0.421875q0.75 -0.4375 1.109375 -1.15625q0.265625 -0.578125 0.265625 -1.671875l0 -0.609375zm4.063217 4.9375l0 -9.859375l1.5 0l0 1.5q0.578125 -1.046875 1.0625 -1.375q0.484375 -0.34375 1.078125 -0.34375q0.84375 0 1.71875 0.546875l-0.578125 1.546875q-0.609375 -0.359375 -1.234375 -0.359375q-0.546875 0 -0.984375 0.328125q-0.421875 0.328125 -0.609375 0.90625q-0.28125 0.890625 -0.28125 1.953125l0 5.15625l-1.671875 0zm11.677231 0l0 -13.59375l1.8125 0l0 5.578125l7.0625153 0l0 -5.578125l1.796875 0l0 13.59375l-1.796875 0l0 -6.40625l-7.0625153 0l0 6.40625l-1.8125 0zm13.222946 -11.6875l0 -1.90625l1.671875 0l0 1.90625l-1.671875 0zm0 11.6875l0 -9.859375l1.671875 0l0 9.859375l-1.671875 0zm3.4573364 -2.9375l1.65625 -0.265625q0.140625 1.0 0.765625 1.53125q0.640625 0.515625 1.78125 0.515625q1.15625 0 1.703125 -0.46875q0.5625 -0.46875 0.5625 -1.09375q0 -0.5625 -0.484375 -0.890625q-0.34375 -0.21875 -1.703125 -0.5625q-1.84375 -0.46875 -2.5625 -0.796875q-0.703125 -0.34375 -1.078125 -0.9375q-0.359375 -0.609375 -0.359375 -1.328125q0 -0.65625 0.296875 -1.21875q0.3125 -0.5625 0.828125 -0.9375q0.390625 -0.28125 1.0625 -0.484375q0.671875 -0.203125 1.4375 -0.203125q1.171875 0 2.046875 0.34375q0.875 0.328125 1.28125 0.90625q0.421875 0.5625 0.578125 1.515625l-1.625 0.21875q-0.109375 -0.75 -0.65625 -1.171875q-0.53125 -0.4375 -1.5 -0.4375q-1.15625 0 -1.640625 0.390625q-0.484375 0.375 -0.484375 0.875q0 0.328125 0.203125 0.59375q0.203125 0.265625 0.640625 0.4375q0.25 0.09375 1.46875 0.4375q1.765625 0.46875 2.46875 0.765625q0.703125 0.296875 1.09375 0.875q0.40625 0.578125 0.40625 1.4375q0 0.828125 -0.484375 1.578125q-0.484375 0.734375 -1.40625 1.140625q-0.921875 0.390625 -2.078125 0.390625q-1.921875 0 -2.9375 -0.796875q-1.0 -0.796875 -1.28125 -2.359375zm13.65625 1.4375l0.234375 1.484375q-0.703125 0.140625 -1.265625 0.140625q-0.90625 0 -1.40625 -0.28125q-0.5 -0.296875 -0.703125 -0.75q-0.203125 -0.46875 -0.203125 -1.984375l0 -5.65625l-1.234375 0l0 -1.3125l1.234375 0l0 -2.4375l1.65625 -1.0l0 3.4375l1.6875 0l0 1.3125l-1.6875 0l0 5.75q0 0.71875 0.078125 0.921875q0.09375 0.203125 0.296875 0.328125q0.203125 0.125 0.578125 0.125q0.265625 0 0.734375 -0.078125zm0.9020386 -3.421875q0 -2.734375 1.53125 -4.0625q1.265625 -1.09375 3.09375 -1.09375q2.03125 0 3.3125 1.34375q1.296875 1.328125 1.296875 3.671875q0 1.90625 -0.578125 3.0q-0.5625 1.078125 -1.65625 1.6875q-1.078125 0.59375 -2.375 0.59375q-2.0625 0 -3.34375 -1.328125q-1.28125 -1.328125 -1.28125 -3.8125zm1.71875 0q0 1.890625 0.828125 2.828125q0.828125 0.9375 2.078125 0.9375q1.25 0 2.0625 -0.9375q0.828125 -0.953125 0.828125 -2.890625q0 -1.828125 -0.828125 -2.765625q-0.828125 -0.9375 -2.0625 -0.9375q-1.25 0 -2.078125 0.9375q-0.828125 0.9375 -0.828125 2.828125zm9.266357 4.921875l0 -9.859375l1.5 0l0 1.5q0.578125 -1.046875 1.0625 -1.375q0.484375 -0.34375 1.078125 -0.34375q0.84375 0 1.71875 0.546875l-0.578125 1.546875q-0.609375 -0.359375 -1.234375 -0.359375q-0.546875 0 -0.984375 0.328125q-0.421875 0.328125 -0.609375 0.90625q-0.28125 0.890625 -0.28125 1.953125l0 5.15625l-1.671875 0zm6.150177 3.796875l-0.171875 -1.5625q0.546875 0.140625 0.953125 0.140625q0.546875 0 0.875 -0.1875q0.34375 -0.1875 0.5625 -0.515625q0.15625 -0.25 0.5 -1.25q0.046875 -0.140625 0.15625 -0.40625l-3.734375 -9.875l1.796875 0l2.046875 5.71875q0.40625 1.078125 0.71875 2.28125q0.28125 -1.15625 0.6875 -2.25l2.09375 -5.75l1.671875 0l-3.75 10.03125q-0.59375 1.625 -0.9375 2.234375q-0.4375 0.828125 -1.015625 1.203125q-0.578125 0.390625 -1.375 0.390625q-0.484375 0 -1.078125 -0.203125z" fill-rule="nonzero"></path><path fill="#000000" fill-opacity="0.0" d="m141.48512 175.59213l-24.881882 0" fill-rule="nonzero"></path><path stroke="#000000" stroke-width="2.0" stroke-linejoin="round" stroke-linecap="butt" d="m141.48512 175.59213l-12.881882 0" fill-rule="evenodd"></path><path fill="#000000" stroke="#000000" stroke-width="2.0" stroke-linecap="butt" d="m128.60323 172.28867l-9.076187 3.3034668l9.076187 3.3034668z" fill-rule="evenodd"></path><path fill="#000000" fill-opacity="0.0" d="m203.96237 175.59204l-24.881897 0" fill-rule="nonzero"></path><path stroke="#000000" stroke-width="2.0" stroke-linejoin="round" stroke-linecap="butt" d="m203.96237 175.59204l-12.881882 0" fill-rule="evenodd"></path><path fill="#000000" stroke="#000000" stroke-width="2.0" stroke-linecap="butt" d="m191.08049 172.28859l-9.076202 3.3034515l9.076202 3.3034668z" fill-rule="evenodd"></path><path fill="#000000" fill-opacity="0.0" d="m266.43964 175.59196l-24.881897 0" fill-rule="nonzero"></path><path stroke="#000000" stroke-width="2.0" stroke-linejoin="round" stroke-linecap="butt" d="m266.43964 175.59196l-12.881897 0" fill-rule="evenodd"></path><path fill="#000000" stroke="#000000" stroke-width="2.0" stroke-linecap="butt" d="m253.55774 172.2885l-9.076187 3.3034668l9.076187 3.3034668z" fill-rule="evenodd"></path><path fill="#c9daf8" d="m173.41626 127.69563l0 0c0 -10.384689 8.418457 -18.803146 18.803162 -18.803146l0 0c4.9868927 0 9.7695465 1.981041 13.295822 5.507309c3.5262756 3.5262756 5.507324 8.308929 5.507324 13.295837l0 0c0 10.384689 -8.418457 18.803146 -18.803146 18.803146l0 0c-10.384705 0 -18.803162 -8.418457 -18.803162 -18.803146z" fill-rule="nonzero"></path><path stroke="#000000" stroke-width="2.0" stroke-linejoin="round" stroke-linecap="butt" d="m173.41626 127.69563l0 0c0 -10.384689 8.418457 -18.803146 18.803162 -18.803146l0 0c4.9868927 0 9.7695465 1.981041 13.295822 5.507309c3.5262756 3.5262756 5.507324 8.308929 5.507324 13.295837l0 0c0 10.384689 -8.418457 18.803146 -18.803146 18.803146l0 0c-10.384705 0 -18.803162 -8.418457 -18.803162 -18.803146z" fill-rule="nonzero"></path><path fill="#c9daf8" d="m235.89352 127.69555l0 0c0 -10.384689 8.418457 -18.803146 18.803146 -18.803146l0 0c4.9868927 0 9.7695465 1.981041 13.295822 5.5073166c3.5262756 3.5262756 5.507324 8.308929 5.507324 13.29583l0 0c0 10.384697 -8.418457 18.803154 -18.803146 18.803154l0 0c-10.384689 0 -18.803146 -8.418457 -18.803146 -18.803154z" fill-rule="nonzero"></path><path stroke="#000000" stroke-width="2.0" stroke-linejoin="round" stroke-linecap="butt" d="m235.89352 127.69555l0 0c0 -10.384689 8.418457 -18.803146 18.803146 -18.803146l0 0c4.9868927 0 9.7695465 1.981041 13.295822 5.5073166c3.5262756 3.5262756 5.507324 8.308929 5.507324 13.29583l0 0c0 10.384697 -8.418457 18.803154 -18.803146 18.803154l0 0c-10.384689 0 -18.803146 -8.418457 -18.803146 -18.803154z" fill-rule="nonzero"></path><path fill="#000000" fill-opacity="0.0" d="m173.41626 127.69563l-56.7874 47.905518" fill-rule="nonzero"></path><path stroke="#000000" stroke-width="2.0" stroke-linejoin="round" stroke-linecap="butt" d="m173.41626 127.69563l-47.61519 40.167908" fill-rule="evenodd"></path><path fill="#000000" stroke="#000000" stroke-width="2.0" stroke-linecap="butt" d="m123.67099 165.33853l-4.807312 8.37735l9.067467 -3.3273468z" fill-rule="evenodd"></path><path fill="#000000" fill-opacity="0.0" d="m235.89352 127.69555l-24.881897 0" fill-rule="nonzero"></path><path stroke="#000000" stroke-width="2.0" stroke-linejoin="round" stroke-linecap="butt" d="m235.89351 127.69555l-12.881882 0" fill-rule="evenodd"></path><path fill="#000000" stroke="#000000" stroke-width="2.0" stroke-linecap="butt" d="m223.01163 124.39208l-9.076202 3.3034668l9.076202 3.3034592z" fill-rule="evenodd"></path><path fill="#000000" fill-opacity="0.0" d="m18.449821 197.42485l0 -183.40158" fill-rule="nonzero"></path><path stroke="#000000" stroke-width="2.0" stroke-linejoin="round" stroke-linecap="butt" d="m18.449821 197.42485l0 -171.40158" fill-rule="evenodd"></path><path fill="#000000" stroke="#000000" stroke-width="2.0" stroke-linecap="butt" d="m21.753286 26.023273l-3.303465 -9.076195l-3.303465 9.076195z" fill-rule="evenodd"></path></g></svg>

